<svg id="Layer_1" data-name="Layer 1" xmlns="http://www.w3.org/2000/svg" width="91.44" height="72.02" viewBox="0 0 91.44 72.02"><defs><style>.cls-1{fill:#a8aaad;}</style></defs><title>logo</title><path class="cls-1" d="M54.47,42.54H52.71l-.07-.22h1.68l3.73-12.85h.21Zm-9.06,6.85a13.47,13.47,0,0,1-9.36-3.77,16.32,16.32,0,0,0,18.72,0,13.47,13.47,0,0,1-9.36,3.77M34.05,42.54l.06-.22h2.31l.14.22Zm4.28-9.69-.93,3.33h-.21l1-3.69Zm1.49,6.44H36.53l-.44,1.46-.15-.23.43-1.44h3.4Zm-2.6-10.63h2.1l3.77,13H40.56l.75-1,0,0L38.27,30.38l-.06-.22-1.85,6.57,0,.1h2.81l.44,1.6h-3.7l-.65,2.19.68,1.06H33.41Zm-4.69,13,3.8-13h.21l-3.8,13Zm16.32-12.9L46.3,37l-.1-.34,2.55-8.25Zm5-.17H54l.9,1.45-2,7-.11-.37L54.69,30v0Zm-18-9.23c-.12-1.27-.06-2.26.64-3C37.6,15.25,40.31,15,45.59,15s7.86.2,9,1.33c.69.71.74,1.71.62,3a40.84,40.84,0,0,1-.61,4.16,15.11,15.11,0,0,0-18.15-.12,40.11,40.11,0,0,1-.58-4m9.58,2.25a13.47,13.47,0,0,1,9.36,3.77,15.52,15.52,0,0,0-9.36-2.79,15.52,15.52,0,0,0-9.36,2.79,13.47,13.47,0,0,1,9.36-3.77M43.72,42.54H41.19l.16-.22h2.31Zm-3.1-13.93h.2l3.87,13.07h-.21Zm9.19,7.53-2,6.4H46l-.07-.22H47.7l2-6.56Zm0-2.44-.06-.22-2.51,8.2H45.36L41.5,28.61h2.85l-.81,1.25v0l2.7,9.17.06.22,3.35-10.84,3.25,11L55.58,30v0l-.84-1.35h2.87L53.84,41.68H52.07ZM31.91,16c0-4.73,6.17-4.88,13.77-4.88s13.78.15,13.78,4.88c0-4.73-11-4.27-13.78-4.27S31.91,11.25,31.91,16m28.58,2.24c.24-2.56-.16-4.3-1.27-5.48C57.42,10.81,53.55,10,45.88,10c-8.1,0-12.17.82-14.06,2.84-1.12,1.2-1.54,2.9-1.31,5.35a33.68,33.68,0,0,0,2,9.55,15.09,15.09,0,1,0,25.9,0,30.63,30.63,0,0,0,2.12-9.58"/><path class="cls-1" d="M73.88,36H60.6v-.44H73.88ZM59.07,37H76.78V35.09H59.07Z"/><path class="cls-1" d="M17.15,35.53H30.32V36H17.15Zm14.49-.44H16.42V37H31.64Z"/><path class="cls-1" d="M77.52,49.83a34.86,34.86,0,0,1-64,0H12.25a36,36,0,0,0,66.5,0Z"/><path class="cls-1" d="M45.5,1.14A34.93,34.93,0,0,1,77.61,22.4h1.23a36,36,0,0,0-66.67,0h1.22A34.93,34.93,0,0,1,45.5,1.14"/><path class="cls-1" d="M10.42,44s0,0,0,0,0,.06,0,.1Z"/><path class="cls-1" d="M70.69,37a25.21,25.21,0,0,1-50.38,0h-.72a25.93,25.93,0,0,0,51.83,0Z"/><path class="cls-1" d="M60.29,14.72a6.39,6.39,0,0,1,.2,1,25.16,25.16,0,0,1,10.2,19.33h.73A26,26,0,0,0,60.29,14.72"/><path class="cls-1" d="M30.78,14.68A25.91,25.91,0,0,0,19.59,35.09h.72A25.2,25.2,0,0,1,30.53,15.75a5.59,5.59,0,0,1,.25-1.07"/><path class="cls-1" d="M18.48,22.31l-1.15-1.38,1.79.22Zm2.86-1.66c-.06.08-.13.07-.31.05l-3.89-.46a.47.47,0,0,1-.17,0s-.07-.05,0-.15h0l-.5.91h0a.12.12,0,0,1,.17,0c.05,0,.09.08.13.13h0l2.47,3c.11.13.15.19.12.28h0l.4-.73h0a.12.12,0,0,1-.14,0s-.08-.07-.19-.21-.23-.29-.48-.58v0l.85-1.56h0l.61.06a2,2,0,0,1,.45.07.11.11,0,0,1,0,.13h0l.46-.82Z"/><path class="cls-1" d="M24.45,15.83l1.09-1c.46-.44.48-1-.25-1.74s-1.36-.69-1.85-.23l-1,.92Zm-2.8-1.9c-.09-.09-.14-.11-.23,0l-.05-.05L23,12.29c.95-.89,1.93-.66,2.81.27s1,2,.19,2.74l-1.72,1.63-.06-.06c.09-.09.07-.13,0-.23Z"/><path class="cls-1" d="M25.57,14.82l-1.12,1.06-2-2.13,1-.95a1.18,1.18,0,0,1,.8-.37,1.57,1.57,0,0,1,1.1.6,1.7,1.7,0,0,1,.58,1.13.88.88,0,0,1-.33.66m.22-2.24c-.93-1-1.89-1.08-2.75-.26l-1.62,1.53h0c.09-.07.16,0,.25.06l2.56,2.71c.09.09.12.16,0,.25h0L26,15.27A1.57,1.57,0,0,0,26.53,14a2.35,2.35,0,0,0-.74-1.46"/><path class="cls-1" d="M32.81,5.9l0,.08c-.1,0-.09.13-.08.29l.35,3.85a.41.41,0,0,0,0,.16c0,.05.07.06.13,0l0,.07-.9.45,0-.08s.06-.05,0-.09a.5.5,0,0,0-.12-.13L29.44,7.9c-.14-.12-.17-.13-.31-.1l0-.07,1-.47,0,.07s-.07.08-.05.12a1.72,1.72,0,0,0,.2.2L32.4,9.6l-.26-2.92a.75.75,0,0,0,0-.24.09.09,0,0,0-.12,0l0-.07Z"/><path class="cls-1" d="M33.26,10.37h0a.11.11,0,0,1-.1-.07.19.19,0,0,1,0-.12.06.06,0,0,0,0,0l-.35-3.86c0-.14,0-.24.07-.31h0l-.8.4h0a.14.14,0,0,1,.14.06.84.84,0,0,1,0,.18v.08l.27,3-2.22-2a.6.6,0,0,1-.08-.08A.76.76,0,0,1,30,7.47a.14.14,0,0,1,0-.15h0l-.9.44h0c.13,0,.18,0,.31.12l2.86,2.62,0,0a.33.33,0,0,1,.09.11.09.09,0,0,1,0,.13h0Z"/><path class="cls-1" d="M39.87,6.45l.39-1.74.92,1.53ZM42,7.83h0L43,7.69h0c-.1,0-.14-.07-.22-.21l-2-3.33A.56.56,0,0,1,40.61,4s0-.09.09-.13h0l-1,.16V4a.13.13,0,0,1,.13.11.68.68,0,0,1,0,.19h0L39,8.08c0,.17-.07.23-.15.26v0l.82-.14h0a.12.12,0,0,1-.09-.11.67.67,0,0,1,.05-.28c0-.14.09-.36.16-.73v0h0l1.76-.29v0l.33.53a2,2,0,0,1,.22.39s0,0,0,.06a.1.1,0,0,1-.06,0"/><path class="cls-1" d="M52.21,4.13h0L51.39,4h0a.16.16,0,0,1,.08,0,.27.27,0,0,1,0,.18L51.09,7,51,6.89l-1.81-3a.21.21,0,0,1,0-.12s0-.1.15-.09h0l-1-.15h0a.16.16,0,0,1,.08.05.21.21,0,0,1,0,.18l-.53,3.69c0,.09,0,.19-.15.19h0l.82.12h0c-.11,0-.12-.11-.11-.23l.43-2.91,0,.08,1.89,3.17a.19.19,0,0,1,0,.15s0,.07-.1.07h0l.86.12h0a.14.14,0,0,1-.08-.05.22.22,0,0,1,0-.17l.53-3.7c0-.09,0-.18.16-.18"/><path class="cls-1" d="M60.87,8.65l0-.08a.3.3,0,0,0,0-.08c.07-.13-.32-.73-.9-1a1.38,1.38,0,0,0-2,.65,1.42,1.42,0,0,0,.77,2c.64.31,1.39.17,1.5-.06a.45.45,0,0,0,0-.11h.06l.1,1h0l-.05,0a2.75,2.75,0,0,1-1.94-.19,2.09,2.09,0,0,1-1.07-3,2.15,2.15,0,0,1,3-.94A3.85,3.85,0,0,1,61.54,8a.12.12,0,0,0,.14,0l0,.06Z"/><path class="cls-1" d="M61.67,8h0a.16.16,0,0,1-.15,0s-.06,0-.14-.15a2.93,2.93,0,0,0-1.1-1,2.49,2.49,0,0,0-1.11-.27,2,2,0,0,0-1.86,1.19,2.06,2.06,0,0,0,1,2.91,2.6,2.6,0,0,0,1.13.29,2.35,2.35,0,0,0,.58-.08.43.43,0,0,1,.24,0l0,0-.08-.89,0,.07c-.07.16-.38.27-.73.27a1.76,1.76,0,0,1-.81-.19,1.44,1.44,0,0,1-.8-2.09,1.39,1.39,0,0,1,1.27-.89,2,2,0,0,1,.82.21c.58.29,1,.91.92,1.07a.21.21,0,0,1,0,.06l0,0Z"/><path class="cls-1" d="M64.08,14.31c.08.08.12.06.21,0l2.57-2.71c.09-.1.1-.15,0-.22l.06-.06,2.4,2.28q.14.12.21,0l0,0-.66.71,0,0c.07-.08.06-.15,0-.23l-1.77-1.69-.72.75,1.16,1.11c.09.08.16.08.23,0l.06.05-.68.71,0,0c.06-.07.06-.14,0-.22L65.9,13.63l-.79.83,1.82,1.73c.08.08.15.08.22,0l0,.05-.66.7-.05-.05c.05-.06.05-.13,0-.22L64,14.37Z"/><path class="cls-1" d="M69.55,13.65h0c-.07,0-.15,0-.24,0l-2.37-2.26h0c.08.09,0,.16,0,.24L64.32,14.3c-.09.09-.16.13-.24.06h0l2.41,2.29c.1.1.09.18.06.23h0l.61-.64h0c-.08.06-.16.05-.25,0l-1.84-1.75.84-.88,1.18,1.13q.14.12.06.24l.62-.65c-.07.06-.16,0-.25,0l-1.19-1.13.77-.8L68.89,14c.09.09.11.17,0,.25Z"/><path class="cls-1" d="M70.61,21l2.54-1.41.67,1.19c.4.73.18,1.29-.7,1.78a2.09,2.09,0,0,1-1,.33.88.88,0,0,1-.81-.53l-.75-1.34Zm1.55,2.52a2.64,2.64,0,0,0,1.28-.39c.83-.46,1.67-1.29.94-2.6L73.3,18.63h0a.22.22,0,0,1,0,.11c0,.05-.06.08-.13.12l-3.26,1.81a.27.27,0,0,1-.14.05.12.12,0,0,1-.11-.07h0l1.13,2a1.53,1.53,0,0,0,1.37.86"/><path class="cls-1" d="M20,47.75l-.07,0a.08.08,0,0,0-.12,0l-.12.09-2,1.73h0l2.58-.63.16,0a.09.09,0,0,0,0-.12l.07,0,.46.86-.07,0a.09.09,0,0,0-.13,0s-.08.07-.11.09l-2,1.8h0l2.55-.68.17-.06a.08.08,0,0,0,0-.13l.07,0,.41.76-.08,0c-.06-.07-.12-.05-.3,0l-3.41.88a1.52,1.52,0,0,0-.28.09.09.09,0,0,0,0,.13l-.07,0-.47-.88.07,0a.09.09,0,0,0,.11,0,1.83,1.83,0,0,0,.25-.22l1.89-1.7h0L17,50.37a.56.56,0,0,0-.2.06.09.09,0,0,0,0,.13l-.07,0-.47-.87.08,0c0,.06.07.07.1,0a1.57,1.57,0,0,0,.25-.2l2.65-2.3c.18-.16.19-.18.17-.25l.07,0Z"/><path class="cls-1" d="M18.08,52.23l3.42-.89c.18-.05.24-.06.31,0h0l-.37-.69h0a.13.13,0,0,1-.07.15.71.71,0,0,1-.19.06l-2.57.69,0-.05,0,0,2-1.8,0,0,.09-.07a.11.11,0,0,1,.16,0h0l-.42-.79h0a.11.11,0,0,1-.06.13.43.43,0,0,1-.16,0l-2.61.65,0-.06,0,0,2-1.75.1-.08a.12.12,0,0,1,.16,0h0L19.53,47h0c0,.08,0,.12-.19.27l-2.65,2.3-.05,0a.74.74,0,0,1-.2.16h-.05a.09.09,0,0,1-.09-.05h0l.43.81h0a.14.14,0,0,1,.07-.15l.21-.06,2.58-.65,0,.06,0,0-1.88,1.7-.07.07-.19.15a.12.12,0,0,1-.14,0h0l.43.81h0V52.4a.09.09,0,0,1,.06-.08,1,1,0,0,1,.24-.08Z"/><path class="cls-1" d="M21.9,58c.08.08.13.06.21,0l2.59-2.7c.08-.09.1-.14,0-.22l.06-.06,2.38,2.3c.09.08.16.09.22,0l.05,0-.67.7L26.7,58c.08-.08.07-.15,0-.23L24.92,56l-.72.76,1.15,1.11c.09.08.16.08.23,0l.06,0-.68.7-.05,0c.06-.07.06-.14,0-.23l-1.15-1.11-.8.83,1.8,1.73c.09.09.16.09.23,0l.05.05-.66.69-.06,0c.06-.06.06-.13,0-.21L21.84,58Z"/><path class="cls-1" d="M27.14,57.28,24.78,55h0c.08.1,0,.17-.05.25L22.14,58c-.09.09-.15.13-.24.06h0l2.39,2.3a.24.24,0,0,1,.09.16.13.13,0,0,1,0,.08h0l.61-.64c-.07.06-.15,0-.24,0l-1.83-1.76,0,0,.81-.85,1.18,1.14a.2.2,0,0,1,.09.15.16.16,0,0,1,0,.09l.62-.65c-.08.06-.16.05-.25,0L24.15,56.8l0,0,.75-.78,0,0,1.76,1.7a.19.19,0,0,1,.08.15.17.17,0,0,1,0,.1l.61-.64c-.07.05-.15,0-.23,0"/><path class="cls-1" d="M29.81,64.13c.1.05.14,0,.19-.1l1.65-3.34c.05-.12.05-.17,0-.22l0-.07.91.44,0,.08c-.12-.06-.16,0-.21.09l-1.46,3L33,65c.11,0,.18,0,.22-.05l.07,0-.43.86-.06,0c0-.08,0-.14-.1-.2L29.77,64.2Z"/><path class="cls-1" d="M33.18,65c0,.07-.13.09-.24,0L30.79,64l0,0,1.45-3c.05-.09.1-.17.23-.12h0l-.84-.41h0c.11.06.08.15,0,.24L30,64.05c-.05.09-.1.17-.22.13h0l2.85,1.4c.13.07.14.14.13.21Z"/><path class="cls-1" d="M38.62,67.45c.11,0,.13,0,.15-.15l.61-3.67c0-.13,0-.18-.1-.2v-.08l1,.17,0,.08c-.13,0-.16,0-.18.14L39.56,67l2.32.38c.12,0,.18,0,.19-.11h.07l-.15,1-.07,0c0-.08,0-.13-.15-.15l-3.17-.53Z"/><path class="cls-1" d="M41.87,67.42,39.52,67v0l.54-3.25c0-.11,0-.2.18-.18h0l-.92-.16h0a.16.16,0,0,1,.08.06.23.23,0,0,1,0,.17l-.61,3.68c0,.1,0,.19-.16.18h0l3.13.52c.15,0,.19.1.19.16h0l.14-.86c0,.08-.1.12-.23.1"/><path class="cls-1" d="M52,67.39c0,.12.06.16.16.15v.08l-.93.13,0-.08c.06,0,.1,0,.1-.06s0-.07-.12-.14L48.48,65l.4,2.81c0,.13,0,.17.16.16l0,.08-.9.12V68.1c.11,0,.12-.06.1-.19l-.54-3.69c0-.13,0-.17-.14-.15V64l1.07-.16v.08c-.09,0-.13,0-.12.1s0,0,.07.08l2.57,2.34-.38-2.65c0-.12,0-.17-.16-.15v-.08l.9-.13,0,.08c-.11,0-.14.07-.12.19Z"/><path class="cls-1" d="M51.18,67.44l0,0c.05,0,.08.07.09.13s0,0,0,0,0,0-.07,0h0l.86-.12h0c-.12,0-.14-.1-.16-.19l-.53-3.69a.21.21,0,0,1,0-.18l.08-.05h0l-.83.12h0c.12,0,.13.1.14.19l.4,2.75-.08-.07-2.57-2.35c-.05,0-.08-.07-.08-.1a.08.08,0,0,1,0-.07.14.14,0,0,1,.1-.06h0l-1,.15h0c.12,0,.14.09.15.19l.53,3.69c0,.11,0,.19-.09.22h0L49,68h0c-.12,0-.14-.1-.15-.19l-.43-2.92Z"/><path class="cls-1" d="M58.32,65.56c.1,0,.1-.1,0-.22L56.7,62c-.06-.12-.1-.15-.2-.1l0-.07,3-1.48c.12-.05.14-.12.1-.19l.07,0L60,61,60,61c0-.1-.11-.12-.22-.06l-2.2,1.09L58,63l1.44-.71c.11-.06.13-.12.09-.22l.06,0,.44.88-.07,0c0-.08-.11-.1-.22,0l-1.43.71.51,1,2.24-1.11c.11-.05.13-.12.09-.2l.06,0,.43.86-.06,0c0-.07-.11-.09-.22,0l-3,1.49Z"/><path class="cls-1" d="M61.59,64.12h0l-.39-.78a.11.11,0,0,1,0,.1c0,.05,0,.08-.12.11L58.8,64.68l0,0-.52-1.06,1.47-.73q.17-.07.24,0l-.39-.8a.17.17,0,0,1,0,.1.22.22,0,0,1-.13.12L58,63l-.5-1h0l2.21-1.1c.11,0,.19,0,.25,0l-.4-.8h0a.11.11,0,0,1,0,.08.22.22,0,0,1-.13.12l-2.93,1.46h0c.11,0,.17,0,.21.13l1.66,3.35a.24.24,0,0,1,0,.15s0,.07-.07.1h0l3-1.48.12,0a.16.16,0,0,1,.12.05"/><path class="cls-1" d="M67,56l-.1,0a.18.18,0,0,0,0-.07,1.64,1.64,0,0,0-1.28.57c-.56.55-.61,1-.36,1.25.66.68,1.84-2.41,3.31-.9.53.55.48,1.43-.45,2.34A2.92,2.92,0,0,1,66.5,60s0,.06,0,.09l-.06,0-.39-1,.1,0,.05.08c.24.24.88,0,1.35-.5.66-.65.68-1.08.46-1.31-.8-.82-1.93,2.26-3.28.88-.68-.7-.32-1.62.39-2.32a3.49,3.49,0,0,1,1.43-.77.1.1,0,0,0,0-.1l.08,0Z"/><path class="cls-1" d="M68,59.14c.85-.82,1-1.7.45-2.29a1.14,1.14,0,0,0-.82-.41c-.52,0-1,.45-1.4.85s-.6.58-.84.58a.36.36,0,0,1-.25-.11c-.14-.15-.39-.57.37-1.31a1.91,1.91,0,0,1,1.21-.59.29.29,0,0,1,.12,0l0,0h0l-.3-.82h0a.14.14,0,0,1,0,.09s0,0-.13,0a3.06,3.06,0,0,0-1.3.73c-.65.63-1.09,1.55-.39,2.26a1,1,0,0,0,.71.35,2.24,2.24,0,0,0,1.29-.77c.34-.31.66-.61,1-.61a.44.44,0,0,1,.32.15.53.53,0,0,1,.12.54,2.12,2.12,0,0,1-.57.83,1.88,1.88,0,0,1-1.13.59.35.35,0,0,1-.27-.1l0,0h0l.36.93h0a.11.11,0,0,1,0-.08.35.35,0,0,1,.16-.06A2.69,2.69,0,0,0,68,59.14"/><path class="cls-1" d="M74,51.18a2.43,2.43,0,0,0,.34-1.46,1.11,1.11,0,0,0-.61-.85,1.35,1.35,0,0,0-.63-.18c-.66,0-1,.68-1.35,1.28-.24.44-.44.82-.72.82a.34.34,0,0,1-.17,0,.56.56,0,0,1-.3-.48,1.67,1.67,0,0,1,.25-.87,1.73,1.73,0,0,1,1-1h0l0,0h0l-.54-.69h0a.26.26,0,0,1,0,.11s0,0-.11.09a3.08,3.08,0,0,0-1,1.09,2.38,2.38,0,0,0-.32,1.3,1.13,1.13,0,0,0,.64,1,1.26,1.26,0,0,0,.55.16h0c.58,0,.93-.63,1.24-1.18s.49-.88.83-.88a.46.46,0,0,1,.23.06.5.5,0,0,1,.25.3,1.66,1.66,0,0,1-.26,1.14c-.25.47-.68.94-1,.94a.42.42,0,0,1-.16,0l0,0h0l.62.78h0a.12.12,0,0,1,0-.08s.06-.06.13-.1A2.69,2.69,0,0,0,74,51.18"/><path class="cls-1" d="M16.23,35.07H14.75v-.73h1.48Zm-2-1.19v4.5H17V33.88Z"/><path class="cls-1" d="M9.31,28.17H6.94v-.59H9.31Zm.35-1.3H6.48a.16.16,0,0,0-.15.16V45.2a.16.16,0,0,0,.15.16H9.66a.16.16,0,0,0,.16-.16V27a.16.16,0,0,0-.16-.16"/><path class="cls-1" d="M76,35.07H74.57v-.73H76ZM74.1,33.88v4.49h2.77V33.88Z"/><path class="cls-1" d="M84.31,28.17H82v-.59h2.36Zm.5-1.3H81.45a.16.16,0,0,0-.16.16V45.2a.16.16,0,0,0,.16.16h3.36A.16.16,0,0,0,85,45.2V27a.16.16,0,0,0-.16-.16"/><path class="cls-1" d="M24.3,31.9h0a.07.07,0,0,0-.08-.06h-.48v.24h.83s0,0,.05-.08h0v.45h0s0-.06-.05-.06H23.25v0c.06,0,.07,0,.07,0V31.11s0,0-.07-.05v0h1.29s0,0,.05-.07h0v.45h0c0-.06,0-.07-.05-.07h-.83v.21h.48a.08.08,0,0,0,.08-.06h0Z"/><path class="cls-1" d="M25.42,31.85l0,0a.07.07,0,0,0,0,.05c0,.07.28.19.55.19s.37-.06.37-.18-1.07,0-1.07-.48c0-.26.25-.43.64-.43a3.52,3.52,0,0,1,.68.1.08.08,0,0,0,.07,0l0,0-.17.35h0v0c0-.06-.29-.14-.53-.14s-.31.07-.31.13c0,.23,1.07-.06,1.07.54,0,.22-.16.47-.73.47a2.1,2.1,0,0,1-.68-.12.09.09,0,0,0,0,0h0Z"/><path class="cls-1" d="M27.73,32.39v0c.06,0,.07,0,.07,0v-1h-.44s0,0-.05.07h0V31h0c0,.06,0,.07.05.07h1.28s0,0,0-.07h0v.46h0c0-.06,0-.07,0-.07h-.45v1s0,0,.07,0v0Z"/><path class="cls-1" d="M63.61,32.09s0,0,0-.06h0v.42h0c0-.05,0-.06-.06-.06h-1s0,0,0,.06h0c0-.48.42-.67.71-.88a.11.11,0,0,0,.07-.12.14.14,0,0,0-.16-.13.39.39,0,0,0-.37.24v0l0,0-.24-.38,0,0,.05,0a1,1,0,0,1,.55-.23.47.47,0,0,1,.49.45c0,.38-.46.43-.64.63Z"/><path class="cls-1" d="M64.48,31.71c0,.19.08.39.28.39s.27-.2.27-.39-.08-.39-.27-.39-.28.2-.28.39m.88,0a.65.65,0,0,1-.6.7.66.66,0,0,1-.61-.7.65.65,0,0,1,.61-.69.64.64,0,0,1,.6.69"/><path class="cls-1" d="M66.1,31.71c0,.19.08.39.28.39s.28-.2.28-.39-.09-.39-.28-.39-.28.2-.28.39m.89,0a.62.62,0,1,1-1.22,0,.61.61,0,1,1,1.22,0"/><path class="cls-1" d="M67.49,31.61v-.42h0s0,.06,0,.06l.14-.06v-.08s0-.05,0-.05v0h.44v0s-.06,0-.06.05v1.21s0,0,0,0v0h-.44v0s.05,0,.05,0v-.83c-.15.05-.16.05-.17.12Z"/><path class="cls-1" d="M3.22,35.84H.38v-.72H3.22Zm1.53-2v.46H6.12v.73H4.65v-.42H0v3H4.75v.77h2v-4.5Z"/><path class="cls-1" d="M91.06,35.84H88.22v-.72h2.84Zm-4.27-1.19v.42H85.31v-.73h1.38v-.46h-2v4.5h2V37.6h4.75v-3Z"/><path class="cls-1" d="M14,23.74H11.07v-.59H14Zm.32-1.34H10.58a.16.16,0,0,0-.16.16V49.67a.16.16,0,0,0,.16.16h3.76a.16.16,0,0,0,.16-.16V22.56a.16.16,0,0,0-.16-.16"/><path class="cls-1" d="M79.91,23.74H77.15v-.59h2.76Zm.62-1.34H76.77a.16.16,0,0,0-.16.16V49.67a.16.16,0,0,0,.16.16h3.75a.16.16,0,0,0,.16-.16V22.56a.16.16,0,0,0-.16-.16"/><path class="cls-1" d="M29.26,48.44v0a.05.05,0,0,0,0,0c-.06,0,0,.33.19.55s.28.26.37.19-.68-.84-.28-1.15c.2-.16.5-.08.74.23a3,3,0,0,1,.34.61.11.11,0,0,0,.07,0v0l-.39.08v0h0s-.07-.32-.23-.52-.24-.2-.28-.16c-.19.14.71.82.24,1.19-.18.14-.48.16-.83-.29a2,2,0,0,1-.34-.62l-.06,0v0Z"/><path class="cls-1" d="M31,50.53l.34.34.26-.62Zm-.2.1-.23.11s0,0,0,0l0,0-.32-.33,0,0a.07.07,0,0,0,.09,0l1.2-.54s0,0,0-.06l0,0,.49.49,0,0s0,0-.06,0-.34.8-.51,1.19c0,.07,0,.09,0,.11l0,0-.36-.36,0,0s.05,0,.06,0a2,2,0,0,1,.1-.23Z"/><path class="cls-1" d="M33,51.34s0,0,0-.09l0,0,.5.38,0,0c-.05,0-.07,0-.08,0a9.56,9.56,0,0,0,.07,1L33.9,52a0,0,0,0,0,0-.07l0,0,.38.29,0,0c-.06,0-.07,0-.09,0l-.75,1s0,0,0,.09l0,0-.39-.3,0,0s0,0,.07,0,0-.1-.09-1.13l-.5.65s0,0,0,.08l0,0-.4-.31,0,0c.06,0,.07,0,.09,0Z"/><path class="cls-1" d="M37.26,54.38h0s0-.07,0-.08l-.77-.39-.11.2.52.27s0,0,.07,0h0l-.2.39h0c0-.06,0-.07,0-.09l-.52-.26-.19.39s0,0,0,.08v0l-.5-.24,0,0c.06,0,.07,0,.08,0l.56-1.09s0,0-.05-.08l0,0,1.2.6s0,0,.07,0h0Z"/><path class="cls-1" d="M38.43,55.07l.41.15c.15.05.22,0,.24-.07s0-.15-.14-.21l-.41-.15Zm-.25.67s0,0,.06.07l0,0-.5-.18v0c.06,0,.07,0,.08,0l.42-1.15s0-.05,0-.07v0l.9.33c.37.13.48.31.37.6a.43.43,0,0,1-.5.27l.15.52s0,.06,0,.07v0L38.64,56v0s.06,0,.07,0-.13-.46-.15-.53l-.24-.08Z"/><path class="cls-1" d="M40.7,56.07l.47.11-.11-.67Zm-.12.19a1.61,1.61,0,0,0-.13.22s0,0,0,0v0l-.45-.1v0a.1.1,0,0,0,.08,0c0-.06.72-1.09.73-1.1s0,0-.05,0v0l.67.15v0s0,0-.06,0,.14.85.21,1.28c0,.07,0,.09.05.09v0l-.51-.11v0s0,0,.06,0,0-.22,0-.25Z"/><path class="cls-1" d="M42.84,55.68s0,0-.07,0v0l.63.06v0c-.06,0-.08,0-.08,0s.41.56.57.78l.07-.7a0,0,0,0,0-.05,0v0l.48,0v0c-.06,0-.07,0-.07,0L44.19,57s0,0,.07.05v0l-.5,0v0c.05,0,.06,0,.06,0a8.45,8.45,0,0,0-.67-.91l-.08.82s0,0,.07,0v0l-.5-.05v0c.07,0,.08,0,.08,0Z"/><path class="cls-1" d="M46.59,56.25l0,0s0,0,0,0-.21-.11-.43-.11-.48.11-.48.38.29.35.5.34.44-.08.44-.16l0,0,0,0,.28.4,0,0s0,0,0,0a2.1,2.1,0,0,1-.68.16.72.72,0,1,1,0-1.41,1.76,1.76,0,0,1,.46,0l.19,0a.05.05,0,0,0,0,0h0Z"/><path class="cls-1" d="M47.89,57v0c.07,0,.07,0,.07-.06l-.15-1.21s0,0-.08,0v0l.54-.07v0c-.06,0-.07,0-.06.06l.15,1.21s0,0,.08,0v0Z"/><path class="cls-1" d="M49.45,56.22h0a.11.11,0,0,0,0,.05c0,.07.31.12.58.06s.36-.15.33-.26-1,.26-1.16-.23c-.06-.26.15-.49.52-.57a3,3,0,0,1,.7-.05.09.09,0,0,0,.06-.06h0l-.09.39h0v0c0-.07-.32-.07-.56,0s-.28.13-.27.19c.05.23,1.05-.29,1.18.3.05.22-.06.5-.61.63a2.23,2.23,0,0,1-.71,0,.1.1,0,0,0,0,0h0Z"/><path class="cls-1" d="M52.73,54.92h0s0,0,0,0-.23,0-.44,0-.43.26-.34.51.38.24.58.17.39-.22.36-.29l0,0,0,0,.39.3,0,0s0,0,0,0a2.21,2.21,0,0,1-.6.37.79.79,0,0,1-1.06-.37.78.78,0,0,1,.58-1,2,2,0,0,1,.45-.11h.19s0,0,0,0h0Z"/><path class="cls-1" d="M54.15,54.49a.44.44,0,1,0,.21-.53.39.39,0,0,0-.21.53m1.12-.56a.74.74,0,0,1-.41,1,.71.71,0,1,1,.41-1"/><path class="cls-1" d="M57.41,52.52a.34.34,0,1,1-.56.4.34.34,0,0,1,.56-.4"/><path class="cls-1" d="M59.69,50.3h0s0,0,0,0-.22,0-.38.2-.29.41-.11.6.45.07.61-.08.26-.36.21-.41l0,0v0l.48.11v0s0,0,0,0a2.19,2.19,0,0,1-.4.58.72.72,0,1,1-1-1,2.13,2.13,0,0,1,.37-.29l.17-.09s0,0,0,0h0Z"/><path class="cls-1" d="M61.05,49.32l.31-.38-.65-.19Zm.13.18a1.65,1.65,0,0,0,.13.22s0,0,0,0l0,0-.3.36,0,0a.07.07,0,0,0,0-.09l-.67-1.14s0,0,0,0l0,0,.43-.54,0,0s0,0,0,.06.83.26,1.25.38c.06,0,.08,0,.1,0l0,0-.33.41,0,0s0,0,0-.06L61.57,49Z"/></svg>